HIERARCHY
ROOT mixamorig1:Hips
{
	OFFSET 0.000000 99.336189 0.000000
	CHANNELS 6 Xposition Yposition Zposition Xrotation Yrotation Zrotation
	JOINT mixamorig1:Spine
	{
		OFFSET 0.000000 11.233002 -0.973700
		CHANNELS 3 Xrotation Yrotation Zrotation
		JOINT mixamorig1:Spine1
		{
			OFFSET 0.000000 13.105156 -1.135997
			CHANNELS 3 Xrotation Yrotation Zrotation
			JOINT mixamorig1:Spine2
			{
				OFFSET 0.000000 14.977325 -1.298284
				CHANNELS 3 Xrotation Yrotation Zrotation
				JOINT mixamorig1:Neck
				{
					OFFSET 0.000000 16.849533 -1.460572
					CHANNELS 3 Xrotation Yrotation Zrotation
					JOINT mixamorig1:Head
					{
						OFFSET 0.000000 8.395096 2.751800
						CHANNELS 3 Xrotation Yrotation Zrotation
						JOINT mixamorig1:HeadTop_End
						{
							OFFSET 0.000000 20.559998 6.739200
							CHANNELS 3 Xrotation Yrotation Zrotation
							End Site
							{
								OFFSET 0.000000 21.636322 0.000000
							}
						}
					}
				}
				JOINT mixamorig1:LeftShoulder
				{
					OFFSET 7.265500 15.041840 -1.510848
					CHANNELS 3 Xrotation Yrotation Zrotation
					JOINT mixamorig1:LeftArm
					{
						OFFSET 14.705911 -3.419159 -0.100605
						CHANNELS 3 Xrotation Yrotation Zrotation
						JOINT mixamorig1:LeftForeArm
						{
							OFFSET 22.644602 0.000000 -0.000001
							CHANNELS 3 Xrotation Yrotation Zrotation
							JOINT mixamorig1:LeftHand
							{
								OFFSET 27.292511 0.000000 -0.000001
								CHANNELS 3 Xrotation Yrotation Zrotation
								JOINT mixamorig1:LeftHandThumb1
								{
									OFFSET 3.592728 -1.339874 2.558004
									CHANNELS 3 Xrotation Yrotation Zrotation
									JOINT mixamorig1:LeftHandThumb2
									{
										OFFSET 2.856293 -1.649078 1.649079
										CHANNELS 3 Xrotation Yrotation Zrotation
										JOINT mixamorig1:LeftHandThumb3
										{
											OFFSET 2.762619 -1.595001 1.594996
											CHANNELS 3 Xrotation Yrotation Zrotation
											JOINT mixamorig1:LeftHandThumb4
											{
												OFFSET 2.157494 -1.245636 1.245631
												CHANNELS 3 Xrotation Yrotation Zrotation
												End Site
												{
													OFFSET 2.301025 -1.232635 0.971529
												}
											}
										}
									}
								}
								JOINT mixamorig1:LeftHandIndex1
								{
									OFFSET 11.307251 0.013641 2.357859
									CHANNELS 3 Xrotation Yrotation Zrotation
									JOINT mixamorig1:LeftHandIndex2
									{
										OFFSET 3.147453 0.000000 -0.000000
										CHANNELS 3 Xrotation Yrotation Zrotation
										JOINT mixamorig1:LeftHandIndex3
										{
											OFFSET 2.795197 0.000000 -0.000000
											CHANNELS 3 Xrotation Yrotation Zrotation
											JOINT mixamorig1:LeftHandIndex4
											{
												OFFSET 2.307625 0.000000 0.000000
												CHANNELS 3 Xrotation Yrotation Zrotation
												End Site
												{
													OFFSET 2.306709 -0.001938 -0.065372
												}
											}
										}
									}
								}
								JOINT mixamorig1:LeftHandMiddle1
								{
									OFFSET 11.672340 0.000000 -0.000000
									CHANNELS 3 Xrotation Yrotation Zrotation
									JOINT mixamorig1:LeftHandMiddle2
									{
										OFFSET 3.342361 0.000000 0.000000
										CHANNELS 3 Xrotation Yrotation Zrotation
										JOINT mixamorig1:LeftHandMiddle3
										{
											OFFSET 3.109589 0.000000 0.000000
											CHANNELS 3 Xrotation Yrotation Zrotation
											JOINT mixamorig1:LeftHandMiddle4
											{
												OFFSET 2.501335 0.000000 0.000000
												CHANNELS 3 Xrotation Yrotation Zrotation
												End Site
												{
													OFFSET 2.501198 -0.000839 -0.025786
												}
											}
										}
									}
								}
								JOINT mixamorig1:LeftHandRing1
								{
									OFFSET 11.709946 -0.067230 -2.308804
									CHANNELS 3 Xrotation Yrotation Zrotation
									JOINT mixamorig1:LeftHandRing2
									{
										OFFSET 2.988022 0.000000 0.000000
										CHANNELS 3 Xrotation Yrotation Zrotation
										JOINT mixamorig1:LeftHandRing3
										{
											OFFSET 2.828934 0.000000 0.000000
											CHANNELS 3 Xrotation Yrotation Zrotation
											JOINT mixamorig1:LeftHandRing4
											{
												OFFSET 2.279938 0.000000 0.000000
												CHANNELS 3 Xrotation Yrotation Zrotation
												End Site
												{
													OFFSET 2.279907 0.000519 0.012489
												}
											}
										}
									}
								}
								JOINT mixamorig1:LeftHandPinky1
								{
									OFFSET 9.923668 0.038300 -4.298808
									CHANNELS 3 Xrotation Yrotation Zrotation
									JOINT mixamorig1:LeftHandPinky2
									{
										OFFSET 2.850029 0.000000 0.000000
										CHANNELS 3 Xrotation Yrotation Zrotation
										JOINT mixamorig1:LeftHandPinky3
										{
											OFFSET 2.533104 0.000000 0.000000
											CHANNELS 3 Xrotation Yrotation Zrotation
											JOINT mixamorig1:LeftHandPinky4
											{
												OFFSET 1.957939 0.000000 0.000000
												CHANNELS 3 Xrotation Yrotation Zrotation
												End Site
												{
													OFFSET 1.957901 -0.000824 -0.012874
												}
											}
										}
									}
								}
							}
						}
					}
				}
				JOINT mixamorig1:RightShoulder
				{
					OFFSET -7.265500 15.041824 -1.410270
					CHANNELS 3 Xrotation Yrotation Zrotation
					JOINT mixamorig1:RightArm
					{
						OFFSET -14.705913 -3.419144 0.100595
						CHANNELS 3 Xrotation Yrotation Zrotation
						JOINT mixamorig1:RightForeArm
						{
							OFFSET -22.663612 0.000000 -0.000000
							CHANNELS 3 Xrotation Yrotation Zrotation
							JOINT mixamorig1:RightHand
							{
								OFFSET -27.279198 0.000000 -0.000000
								CHANNELS 3 Xrotation Yrotation Zrotation
								JOINT mixamorig1:RightHandThumb1
								{
									OFFSET -3.614082 -1.434402 2.495070
									CHANNELS 3 Xrotation Yrotation Zrotation
									JOINT mixamorig1:RightHandThumb2
									{
										OFFSET -2.862930 -1.652908 1.652914
										CHANNELS 3 Xrotation Yrotation Zrotation
										JOINT mixamorig1:RightHandThumb3
										{
											OFFSET -2.705612 -1.562088 1.562088
											CHANNELS 3 Xrotation Yrotation Zrotation
											JOINT mixamorig1:RightHandThumb4
											{
												OFFSET -2.015022 -1.163376 1.163374
												CHANNELS 3 Xrotation Yrotation Zrotation
												End Site
												{
													OFFSET -1.976738 -1.162766 1.227872
												}
											}
										}
									}
								}
								JOINT mixamorig1:RightHandIndex1
								{
									OFFSET -11.470451 -0.091644 2.347321
									CHANNELS 3 Xrotation Yrotation Zrotation
									JOINT mixamorig1:RightHandIndex2
									{
										OFFSET -2.941315 0.000000 0.000000
										CHANNELS 3 Xrotation Yrotation Zrotation
										JOINT mixamorig1:RightHandIndex3
										{
											OFFSET -2.754845 0.000000 0.000000
											CHANNELS 3 Xrotation Yrotation Zrotation
											JOINT mixamorig1:RightHandIndex4
											{
												OFFSET -2.313835 0.000000 0.000000
												CHANNELS 3 Xrotation Yrotation Zrotation
												End Site
												{
													OFFSET -2.313408 -0.000702 -0.044995
												}
											}
										}
									}
								}
								JOINT mixamorig1:RightHandMiddle1
								{
									OFFSET -11.860054 0.000000 -0.000000
									CHANNELS 3 Xrotation Yrotation Zrotation
									JOINT mixamorig1:RightHandMiddle2
									{
										OFFSET -3.264450 0.000000 0.000000
										CHANNELS 3 Xrotation Yrotation Zrotation
										JOINT mixamorig1:RightHandMiddle3
										{
											OFFSET -2.980850 0.000000 0.000000
											CHANNELS 3 Xrotation Yrotation Zrotation
											JOINT mixamorig1:RightHandMiddle4
											{
												OFFSET -2.558609 0.000000 0.000000
												CHANNELS 3 Xrotation Yrotation Zrotation
												End Site
												{
													OFFSET -2.558502 -0.000549 -0.023293
												}
											}
										}
									}
								}
								JOINT mixamorig1:RightHandRing1
								{
									OFFSET -11.802956 0.056442 -2.371765
									CHANNELS 3 Xrotation Yrotation Zrotation
									JOINT mixamorig1:RightHandRing2
									{
										OFFSET -2.844910 0.000000 0.000000
										CHANNELS 3 Xrotation Yrotation Zrotation
										JOINT mixamorig1:RightHandRing3
										{
											OFFSET -2.915611 0.000000 0.000000
											CHANNELS 3 Xrotation Yrotation Zrotation
											JOINT mixamorig1:RightHandRing4
											{
												OFFSET -1.970497 0.000000 0.000000
												CHANNELS 3 Xrotation Yrotation Zrotation
												End Site
												{
													OFFSET -1.970505 -0.000015 -0.000200
												}
											}
										}
									}
								}
								JOINT mixamorig1:RightHandPinky1
								{
									OFFSET -10.057487 -0.110001 -4.433931
									CHANNELS 3 Xrotation Yrotation Zrotation
									JOINT mixamorig1:RightHandPinky2
									{
										OFFSET -2.744705 0.000000 0.000000
										CHANNELS 3 Xrotation Yrotation Zrotation
										JOINT mixamorig1:RightHandPinky3
										{
											OFFSET -2.484818 0.000000 0.000000
											CHANNELS 3 Xrotation Yrotation Zrotation
											JOINT mixamorig1:RightHandPinky4
											{
												OFFSET -1.925171 0.000000 0.000000
												CHANNELS 3 Xrotation Yrotation Zrotation
												End Site
												{
													OFFSET -1.924904 -0.001541 -0.032164
												}
											}
										}
									}
								}
							}
						}
					}
				}
			}
		}
	}
	JOINT mixamorig1:LeftUpLeg
	{
		OFFSET 10.365500 -6.239296 0.158300
		CHANNELS 3 Xrotation Yrotation Zrotation
		JOINT mixamorig1:LeftLeg
		{
			OFFSET -0.076655 -43.187546 -4.717540
			CHANNELS 3 Xrotation Yrotation Zrotation
			JOINT mixamorig1:LeftFoot
			{
				OFFSET 0.076655 -39.782711 -3.408075
				CHANNELS 3 Xrotation Yrotation Zrotation
				JOINT mixamorig1:LeftToeBase
				{
					OFFSET 5.737187 -9.507075 13.003977
					CHANNELS 3 Xrotation Yrotation Zrotation
					JOINT mixamorig1:LeftToe_End
					{
						OFFSET 2.487782 0.094252 5.924582
						CHANNELS 3 Xrotation Yrotation Zrotation
						End Site
						{
							OFFSET 2.487782 0.094252 5.924583
						}
					}
				}
			}
		}
	}
	JOINT mixamorig1:RightUpLeg
	{
		OFFSET -10.365500 -6.239296 0.042200
		CHANNELS 3 Xrotation Yrotation Zrotation
		JOINT mixamorig1:RightLeg
		{
			OFFSET 0.076658 -43.187538 -4.595327
			CHANNELS 3 Xrotation Yrotation Zrotation
			JOINT mixamorig1:RightFoot
			{
				OFFSET -0.076668 -39.782730 -3.208811
				CHANNELS 3 Xrotation Yrotation Zrotation
				JOINT mixamorig1:RightToeBase
				{
					OFFSET -5.737210 -9.506998 12.351665
					CHANNELS 3 Xrotation Yrotation Zrotation
					JOINT mixamorig1:RightToe_End
					{
						OFFSET -2.487793 0.094301 5.787009
						CHANNELS 3 Xrotation Yrotation Zrotation
						End Site
						{
							OFFSET -2.487793 0.094301 5.787010
						}
					}
				}
			}
		}
	}
}
MOTION
Frames: 5
Frame Time: 0.033333
0.409502 58.874413 -15.029770 17.973040 -3.587009 -3.372397 2.359234 0.817474 0.943140 2.930041 0.334371 0.656144 2.926583 0.321496 0.683319 -20.825511 -1.901464 2.933229 -7.626758 2.371640 -0.087286 0.000000 -0.000000 -0.000000 -1.755235 -6.035065 -1.563779 -17.388777 7.920065 -51.798092 -0.000020 -97.342579 -0.000054 -6.694198 4.107414 1.105125 0.699754 -6.020150 19.223917 15.918188 20.653234 2.508654 2.716033 -2.667506 4.389100 -0.000002 0.000000 -0.000002 -0.723322 0.701236 -17.341483 0.753609 2.876241 -29.358762 0.253278 1.705607 -16.892420 -0.000001 -0.000000 -0.000000 0.636405 4.890734 -23.832125 1.327952 3.715532 -39.323260 0.457598 2.271720 -22.774885 -0.000000 -0.000005 -0.000001 0.769233 5.195497 -34.016377 0.966553 3.225208 -33.358763 0.524452 2.424690 -24.406207 0.000000 -0.000002 0.000000 1.608225 10.167791 -44.264947 0.580822 2.545162 -25.706653 0.088261 1.014210 -9.947779 0.000002 0.000000 -0.000000 -0.022142 8.907101 -1.611575 -19.775759 -7.194634 58.923557 0.000320 90.993440 0.000076 -17.371072 -4.437229 -4.473994 -13.495574 -11.552047 -5.371133 9.647419 -12.885351 -10.896953 2.467291 1.050654 -27.948011 0.000002 0.000001 0.000001 -0.004648 -1.532309 17.306461 0.624515 -2.331536 29.987068 0.157429 -1.201869 14.923895 -0.000001 0.000001 -0.000001 -2.447149 2.303872 24.373045 0.945996 -2.815602 37.137139 0.547233 -2.192251 28.028820 0.000001 0.000001 0.000001 -4.294499 0.433408 43.742522 0.363847 -1.806368 22.776803 0.311979 -1.677463 21.069214 0.000000 0.000000 0.000001 -7.407910 3.578498 44.464928 0.609150 -2.304709 29.606814 0.124330 -1.070050 13.255061 0.000000 0.000001 -0.000000 -97.147570 -7.976410 23.654799 115.785640 -4.426932 1.699272 -34.815185 -0.030470 -1.742116 -1.387771 -0.000030 0.000006 0.000000 -0.000003 0.000000 -96.824379 1.177292 -15.608692 112.414518 4.876192 -1.472506 -32.377269 0.432863 2.052294 -1.487039 -0.000008 -0.000018 0.000000 0.000004 0.000001 
0.471175 62.578232 -14.574636 17.926641 -3.468633 -3.287815 2.164550 0.731047 0.879521 2.742035 0.298022 0.561776 2.738675 0.290056 0.585868 -20.602760 -2.047414 3.270928 -7.430414 2.306525 0.274907 -0.000000 0.000000 0.000000 -1.405354 -6.495536 -2.320449 -14.699073 5.595991 -50.438751 -0.000108 -93.842216 -0.000080 -4.670377 2.569067 0.775464 0.699755 -6.020156 19.223917 16.046858 20.937885 2.356360 2.597341 -2.996038 4.808410 0.000001 0.000001 0.000001 -0.664465 0.949003 -17.622018 0.755818 2.880193 -29.403059 0.258239 1.721870 -17.058397 -0.000000 0.000005 0.000001 0.697247 5.024871 -24.050979 1.330777 3.718983 -39.367148 0.458699 2.274330 -22.802428 0.000000 -0.000005 -0.000001 0.873018 5.354682 -34.530506 0.969188 3.229193 -33.405506 0.525061 2.426027 -24.420742 0.000001 -0.000001 0.000000 1.796093 10.331254 -44.892453 0.584167 2.552125 -25.782178 0.087971 1.012479 -9.930554 0.000000 -0.000001 0.000000 0.384694 9.845174 -0.942722 -17.308446 -5.938964 56.059317 0.000228 88.713789 -0.000531 -16.029479 -4.328714 -2.645751 -13.495574 -11.552049 -5.371136 10.328801 -14.440036 -10.173888 2.492744 0.456290 -27.390623 -0.000002 -0.000006 -0.000002 0.002569 -1.682030 18.017889 0.627497 -2.336650 30.060001 0.158334 -1.205313 14.967634 -0.000000 -0.000002 -0.000003 -2.441268 2.172457 24.761780 0.946245 -2.815974 37.142647 0.548602 -2.194816 28.064701 -0.000002 -0.000004 -0.000000 -4.292409 0.343280 44.164307 0.360286 -1.797816 22.662496 0.313049 -1.680227 21.106164 -0.000003 0.000002 0.000000 -7.465354 3.523047 44.825224 0.603507 -2.294763 29.466358 0.124755 -1.071770 13.276713 0.000000 0.000003 0.000001 -92.676282 -6.671649 22.944354 110.216802 -3.606625 1.273939 -33.851654 0.208641 -2.341363 -1.356050 -0.000001 0.000019 0.000000 -0.000006 -0.000000 -92.275842 0.531227 -15.058786 106.773444 4.409608 -1.099061 -31.331860 0.232178 2.643396 -1.320115 -0.000002 -0.000013 0.000000 0.000003 -0.000000 
0.536309 66.401634 -13.955296 17.377924 -3.295730 -3.129830 1.996080 0.676092 0.807284 2.612211 0.316212 0.450726 2.608840 0.313812 0.473703 -20.321184 -2.159233 3.465177 -7.164487 2.241851 0.489563 0.000000 -0.000000 0.000000 -0.851215 -7.739292 -3.335574 -12.152719 3.451547 -48.652308 -0.002814 -89.530639 -0.000837 -2.437589 1.030338 0.521037 0.699755 -6.020151 19.223923 16.275123 21.429853 2.088831 2.468375 -3.370509 5.320274 0.000000 0.000001 0.000003 -0.624480 1.131188 -17.914229 0.760934 2.889204 -29.504474 0.258650 1.723205 -17.072126 -0.000002 -0.000002 -0.000000 0.761761 5.161786 -24.423175 1.334931 3.724023 -39.430887 0.460080 2.277657 -22.837651 -0.000000 -0.000000 0.000000 0.941233 5.458484 -35.078451 0.972431 3.234072 -33.462907 0.525247 2.426456 -24.425144 0.000003 -0.000001 0.000001 1.952703 10.444507 -45.558700 0.583657 2.551065 -25.770746 0.088038 1.012886 -9.934713 0.000001 0.000001 0.000000 0.926814 11.023195 -0.487013 -14.570277 -4.564480 53.151234 -0.000023 85.681820 -0.000066 -14.064089 -3.751949 -1.281697 -13.495575 -11.552048 -5.371142 10.942291 -15.757270 -9.527475 2.524189 -0.177172 -26.763410 -0.000008 0.000001 -0.000000 0.017937 -1.838854 18.514980 0.620178 -2.323977 29.880001 0.159203 -1.208577 15.009336 -0.000001 -0.000002 0.000002 -2.392428 2.016577 24.921349 0.944968 -2.814256 37.116368 0.549221 -2.195965 28.080634 -0.000001 -0.000001 0.000000 -4.230379 0.247639 44.312143 0.357756 -1.791780 22.582310 0.314398 -1.683714 21.151976 -0.000001 0.000000 0.000000 -7.384929 3.387825 44.981331 0.598498 -2.285847 29.340816 0.125361 -1.074370 13.309517 0.000001 0.000002 -0.000000 -87.523123 -5.197311 22.343774 104.238215 -2.942458 0.820410 -32.661169 0.381678 -2.829867 -1.315098 -0.000021 0.000011 -0.000000 0.000006 0.000001 -87.047011 -0.021403 -14.641544 100.774920 4.019811 -0.691789 -30.091191 0.077435 3.131660 -1.167939 0.000012 -0.000011 0.000000 0.000001 0.000000 
0.569202 70.205231 -13.204586 16.419430 -3.075840 -3.085971 1.838591 0.622173 0.760671 2.506551 0.330677 0.371646 2.503134 0.332349 0.393171 -20.046520 -2.212662 3.485887 -6.891859 2.194533 0.521897 -0.000000 0.000000 0.000000 -0.216191 -9.514026 -4.462114 -9.648624 1.298118 -46.993658 0.000022 -84.410770 0.000067 -0.214280 -0.235303 0.647209 0.699760 -6.020154 19.223919 16.523448 21.952327 1.799290 2.357435 -3.710706 5.799301 0.000002 0.000000 0.000001 -0.544909 1.456131 -18.369177 0.771853 2.908404 -29.720489 0.263071 1.737521 -17.218512 0.000000 -0.000002 0.000001 0.898646 5.445379 -24.963979 1.341037 3.731417 -39.524819 0.462552 2.283474 -22.899410 0.000000 0.000000 -0.000000 1.105563 5.692587 -35.673303 0.977479 3.241713 -33.552485 0.524685 2.425213 -24.411863 -0.000000 0.000001 0.000004 2.151570 10.601959 -46.262166 0.590283 2.564713 -25.918942 0.087728 1.011141 -9.917291 0.000000 -0.000001 -0.000001 1.519634 12.703133 0.051813 -11.585222 -3.101092 50.347653 -0.000033 81.913646 0.000005 -11.662450 -2.903332 -0.550044 -13.495575 -11.552045 -5.371135 11.319958 -16.513285 -9.139662 2.541669 -0.450020 -26.487559 -0.000001 0.000001 0.000001 0.036634 -1.975616 18.771940 0.612209 -2.310057 29.682595 0.160367 -1.212904 15.064453 0.000001 0.000000 -0.000000 -2.300329 1.819625 24.895910 0.943024 -2.811687 37.076736 0.549502 -2.196555 28.088774 -0.000000 0.000001 0.000001 -4.095659 0.126269 44.212153 0.354569 -1.784059 22.479826 0.315446 -1.686473 21.188017 0.000001 -0.000001 -0.000000 -7.121103 3.125156 44.932314 0.593089 -2.276243 29.205233 0.125360 -1.074431 13.310427 -0.000002 0.000001 0.000001 -81.974332 -3.756980 21.936689 98.002279 -2.535216 0.370826 -31.214340 0.502320 -3.230259 -1.235140 -0.000013 0.000015 0.000000 -0.000003 -0.000001 -81.328237 -0.720754 -14.324689 94.508180 3.745916 -0.267043 -28.666355 -0.032741 3.513387 -1.014127 -0.000005 -0.000017 0.000000 0.000006 0.000000 
0.586682 73.964111 -12.370356 15.306840 -2.835241 -3.113901 1.684948 0.550730 0.711747 2.402102 0.323882 0.325220 2.398730 0.327427 0.344395 -19.834668 -2.232212 3.416768 -6.674952 2.159777 0.459048 0.000000 -0.000000 0.000000 0.340431 -11.050220 -5.428335 -7.263358 -1.398832 -46.232803 0.000019 -78.378395 0.000037 1.747523 -0.874814 0.991208 0.699753 -6.020151 19.223917 16.671146 22.256786 1.627814 2.310383 -3.859310 6.022177 -0.000003 0.000000 -0.000002 -0.412105 1.957922 -19.085787 0.787923 2.936393 -30.036020 0.278393 1.786128 -17.716071 0.000001 -0.000002 -0.000002 1.100008 5.849863 -25.518140 1.350680 3.743050 -39.672939 0.465169 2.289657 -22.964938 -0.000001 -0.000002 0.000000 1.423296 6.125906 -36.236517 0.985487 3.253711 -33.693487 0.522982 2.421458 -24.371725 0.000002 0.000000 -0.000001 2.413218 10.835511 -46.919127 0.611177 2.607197 -26.381691 0.086800 1.005798 -9.864563 -0.000000 0.000001 0.000001 2.048426 14.740667 0.726851 -8.784662 -1.228986 48.591485 -0.000013 76.486036 -0.000009 -8.570466 -1.488140 -0.494972 -13.495573 -11.552052 -5.371136 11.488359 -16.827371 -8.973754 2.540854 -0.377049 -26.567831 -0.000002 -0.000008 -0.000002 0.053099 -2.070620 18.814074 0.610781 -2.307523 29.647027 0.161673 -1.217774 15.126277 -0.000001 -0.000000 0.000002 -2.173167 1.576748 24.751873 0.941238 -2.809293 37.040157 0.550053 -2.197580 28.102836 0.000000 0.000004 -0.000001 -3.894765 -0.040046 43.979325 0.349217 -1.771043 22.306877 0.316248 -1.688553 21.215280 0.000002 0.000002 0.000001 -6.728304 2.768157 44.742541 0.587250 -2.265773 29.057804 0.125081 -1.073204 13.294705 -0.000000 0.000000 -0.000001 -76.284655 -2.329165 21.646034 91.442641 -2.328157 -0.064984 -29.451663 0.602969 -3.620145 -1.078822 -0.000003 0.000014 0.000000 0.000002 -0.000000 -75.386061 -1.509792 -14.006726 87.877774 3.530547 0.145367 -26.948552 -0.145431 3.935423 -0.795219 -0.000005 -0.000013 -0.000000 0.000001 -0.000000 
